<svg xmlns="http://www.w3.org/2000/svg" viewBox="0 0 460 120" role="img" aria-labelledby="title desc">
  <title id="title">DineFlow</title>
  <desc id="desc">DineFlow logo with a modern dining plate and workflow-inspired monogram</desc>
  <defs>
    <linearGradient id="df-bg" x1="10" y1="10" x2="98" y2="98" gradientUnits="userSpaceOnUse">
      <stop offset="0%" stop-color="#5A1E0E"/>
      <stop offset="55%" stop-color="#EC9057"/>
      <stop offset="100%" stop-color="#F6AE2D"/>
    </linearGradient>
    <linearGradient id="df-ring" x1="28" y1="24" x2="84" y2="82" gradientUnits="userSpaceOnUse">
      <stop offset="0%" stop-color="#FFF3E0"/>
      <stop offset="100%" stop-color="#FFD670"/>
    </linearGradient>
  </defs>

  <rect x="10" y="10" width="92" height="92" rx="26" fill="url(#df-bg)"/>

  <circle cx="56" cy="56" r="28" fill="none" stroke="url(#df-ring)" stroke-width="8"/>
  <path d="M42 38h13c12.5 0 20 7 20 18s-7.5 18-20 18H42z" fill="none" stroke="#FFF3E0" stroke-width="7" stroke-linejoin="round"/>
  <path d="M49 47h7.5c7.5 0 11.5 3.2 11.5 9s-4 9-11.5 9H49z" fill="#FFF3E0"/>
  <path d="M34 56h10" fill="none" stroke="#FFD670" stroke-width="5" stroke-linecap="round"/>
  <path d="M69 73h14" fill="none" stroke="#FFD670" stroke-width="5" stroke-linecap="round"/>
  <path d="M75 67l8 6-8 6" fill="none" stroke="#FFD670" stroke-width="5" stroke-linecap="round" stroke-linejoin="round"/>
  <circle cx="34" cy="34" r="4" fill="#FFF3E0" opacity="0.92"/>
  <circle cx="78" cy="34" r="3" fill="#FFD670" opacity="0.95"/>

  <text x="122" y="69" font-family="'Trebuchet MS', 'Segoe UI', Arial, sans-serif" font-size="50" font-weight="800" letter-spacing="0.15" fill="#5A1E0E">DineFlow</text>
</svg>
